<!--
  - Copyright (c) 2022 Rick Martens - All rights not expressly granted herein are reserved
  -
  - This material is licensed under the Creative Commons Attribution-NonCommercial-ShareAlike 4.0 International.
  -->

<svg width="1024" height="1024" viewBox="0 0 1024 1024" fill="none" xmlns="http://www.w3.org/2000/svg">
<g filter="url(#filter0_d_1_2)">
<rect x="212" y="212" width="600" height="600" rx="45" fill="black"/>
</g>
<rect x="237" y="237" width="550" height="550" rx="45" fill="black"/>
<rect x="517" y="517" width="270" height="270" rx="45" fill="#FF006B"/>
<path d="M640.051 712.158C618.384 710.212 601.669 702.764 589.904 689.814C578.225 676.781 572.385 659.642 572.385 638.398C572.385 624.18 575.093 611.527 580.51 600.439C586.011 589.268 594.136 580 604.885 572.637L617.707 589.521C604.081 601.37 596.844 617.663 595.998 638.398C595.998 653.04 599.807 665.228 607.424 674.961C615.126 684.609 626.001 690.534 640.051 692.734V601.836C640.051 592.949 642.971 585.882 648.811 580.635C654.65 575.303 662.352 572.637 671.916 572.637C682.919 572.637 693.16 575.641 702.639 581.65C712.202 587.575 719.735 595.785 725.236 606.279C730.738 616.774 733.488 628.327 733.488 640.938C733.488 661.504 727.352 678.092 715.08 690.703C702.808 703.229 685.627 710.381 663.537 712.158V770.684H640.051V712.158ZM663.537 692.734C677.925 690.872 689.266 685.244 697.561 675.85C705.855 666.455 710.002 654.818 710.002 640.938C709.579 626.634 705.855 614.912 698.83 605.771C691.89 596.631 682.919 592.061 671.916 592.061C666.33 592.061 663.537 595.531 663.537 602.471V692.734Z" fill="black"/>
<rect x="237" y="517" width="270" height="270" rx="45" fill="#ADFF00"/>
<rect x="237" y="237" width="270" height="270" rx="45" fill="#5865F2"/>
<rect x="517" y="237" width="270" height="270" rx="45" fill="#FFED82"/>
<path d="M463.562 343.84H422.482V465H404.022V343.84H357.222L343.182 465H324.722L338.762 343.84H323.942C313.715 343.84 306.088 346.093 301.062 350.6C296.035 355.107 293.522 361.607 293.522 370.1C293.522 377.033 296.122 384.227 301.322 391.68L287.022 396.62C283.728 392.633 281.128 388.04 279.222 382.84C277.488 377.467 276.622 372.267 276.622 367.24C276.622 355.8 280.608 346.44 288.582 339.16C296.728 331.88 307.822 328.24 321.862 328.24H463.822L463.562 343.84Z" fill="black"/>
<path d="M593.717 385.5C581.41 385.5 571.443 380.993 563.817 371.98C556.363 362.793 552.637 350.833 552.637 336.1C552.637 321.367 556.363 309.493 563.817 300.48C571.443 291.293 581.41 286.7 593.717 286.7C605.85 286.7 615.73 291.207 623.357 300.22C630.983 309.233 634.797 321.193 634.797 336.1C634.797 351.007 630.983 362.967 623.357 371.98C615.73 380.993 605.85 385.5 593.717 385.5ZM703.957 288H719.297L595.017 470H579.677L703.957 288ZM593.717 373.8C602.21 373.8 608.97 370.507 613.997 363.92C619.197 357.16 621.797 347.887 621.797 336.1C621.797 324.313 619.197 315.127 613.997 308.54C608.97 301.78 602.21 298.4 593.717 298.4C585.05 298.4 578.203 301.78 573.177 308.54C568.15 315.3 565.637 324.487 565.637 336.1C565.637 347.713 568.15 356.9 573.177 363.66C578.203 370.42 585.05 373.8 593.717 373.8ZM705.257 471.3C693.123 471.3 683.243 466.793 675.617 457.78C667.99 448.593 664.177 436.633 664.177 421.9C664.177 407.167 667.99 395.293 675.617 386.28C683.243 377.093 693.123 372.5 705.257 372.5C717.563 372.5 727.443 377.093 734.897 386.28C742.523 395.293 746.337 407.167 746.337 421.9C746.337 436.633 742.523 448.593 734.897 457.78C727.443 466.793 717.563 471.3 705.257 471.3ZM705.257 459.6C713.923 459.6 720.77 456.22 725.797 449.46C730.823 442.7 733.337 433.513 733.337 421.9C733.337 410.287 730.823 401.1 725.797 394.34C720.77 387.58 713.923 384.2 705.257 384.2C696.763 384.2 689.917 387.58 684.717 394.34C679.69 400.927 677.177 410.113 677.177 421.9C677.177 433.687 679.69 442.96 684.717 449.72C689.917 456.307 696.763 459.6 705.257 459.6Z" fill="black"/>
<path d="M319.925 626.3H433.025V641.64H319.925V626.3ZM319.925 686.36H433.025V701.7H319.925V686.36Z" fill="black"/>
<defs>
<filter id="filter0_d_1_2" x="208" y="212" width="608" height="608" filterUnits="userSpaceOnUse" color-interpolation-filters="sRGB">
<feFlood flood-opacity="0" result="BackgroundImageFix"/>
<feColorMatrix in="SourceAlpha" type="matrix" values="0 0 0 0 0 0 0 0 0 0 0 0 0 0 0 0 0 0 127 0" result="hardAlpha"/>
<feOffset dy="4"/>
<feGaussianBlur stdDeviation="2"/>
<feComposite in2="hardAlpha" operator="out"/>
<feColorMatrix type="matrix" values="0 0 0 0 0 0 0 0 0 0 0 0 0 0 0 0 0 0 0.25 0"/>
<feBlend mode="normal" in2="BackgroundImageFix" result="effect1_dropShadow_1_2"/>
<feBlend mode="normal" in="SourceGraphic" in2="effect1_dropShadow_1_2" result="shape"/>
</filter>
</defs>
</svg>
